<mxfile host="app.diagrams.net" modified="2023-07-25T09:22:17.842Z" agent="Mozilla/5.0 (Macintosh; Intel Mac OS X 10_15_7) AppleWebKit/537.36 (KHTML, like Gecko) Chrome/114.0.0.0 Safari/537.36" etag="HhetIFA3_QlhMujZoZG_" version="21.6.5" type="github">
  <diagram name="第 1 页" id="CmcPl1CsmX6Gf_P9_VBr">
    <mxGraphModel dx="934" dy="542" grid="1" gridSize="10" guides="1" tooltips="1" connect="1" arrows="1" fold="1" page="1" pageScale="1" pageWidth="827" pageHeight="1169" math="0" shadow="0">
      <root>
        <mxCell id="0" />
        <mxCell id="1" parent="0" />
        <mxCell id="yICQoaKI8Lp6KE9foPb2-8" value="" style="group;fontStyle=1;fillColor=#f5f5f5;fontColor=#333333;strokeColor=#666666;" parent="1" vertex="1" connectable="0">
          <mxGeometry x="40" y="30" width="320" height="210" as="geometry" />
        </mxCell>
        <mxCell id="yICQoaKI8Lp6KE9foPb2-6" value="&lt;font style=&quot;&quot;&gt;以太网协议&lt;/font&gt;" style="rounded=1;whiteSpace=wrap;html=1;align=left;fontStyle=1;fillColor=#ffe6cc;strokeColor=#d79b00;gradientColor=none;glass=0;shadow=0;sketch=1;curveFitting=1;jiggle=2;fontFamily=Comic Sans MS;verticalAlign=top;" parent="yICQoaKI8Lp6KE9foPb2-8" vertex="1">
          <mxGeometry width="320" height="210" as="geometry" />
        </mxCell>
        <mxCell id="yICQoaKI8Lp6KE9foPb2-5" value="&lt;font face=&quot;Comic Sans MS&quot;&gt;ip头部&lt;/font&gt;" style="rounded=1;whiteSpace=wrap;html=1;align=left;fontStyle=1;fillColor=#fff2cc;strokeColor=#d6b656;sketch=1;curveFitting=1;jiggle=2;verticalAlign=top;" parent="yICQoaKI8Lp6KE9foPb2-8" vertex="1">
          <mxGeometry x="70" y="20" width="240" height="170" as="geometry" />
        </mxCell>
        <mxCell id="yICQoaKI8Lp6KE9foPb2-4" value="&lt;font face=&quot;Comic Sans MS&quot;&gt;tcp头部&lt;/font&gt;" style="rounded=1;whiteSpace=wrap;html=1;align=left;fontStyle=1;fillColor=#f8cecc;strokeColor=#b85450;verticalAlign=top;" parent="yICQoaKI8Lp6KE9foPb2-8" vertex="1">
          <mxGeometry x="120" y="50" width="180" height="100" as="geometry" />
        </mxCell>
        <mxCell id="yICQoaKI8Lp6KE9foPb2-3" value="&lt;font face=&quot;Comic Sans MS&quot;&gt;http数据&lt;/font&gt;" style="rounded=1;whiteSpace=wrap;html=1;fontStyle=1;fillColor=#e1d5e7;strokeColor=#9673a6;sketch=1;curveFitting=1;jiggle=2;" parent="yICQoaKI8Lp6KE9foPb2-8" vertex="1">
          <mxGeometry x="170" y="70" width="120" height="60" as="geometry" />
        </mxCell>
        <mxCell id="qUajyIX2pjDEGxBcLToG-16" value="" style="group" vertex="1" connectable="0" parent="1">
          <mxGeometry x="414" y="20" width="640" height="340" as="geometry" />
        </mxCell>
        <mxCell id="qUajyIX2pjDEGxBcLToG-1" value="" style="rounded=0;whiteSpace=wrap;html=1;fontFamily=Comic Sans MS;fontStyle=1;container=1;" vertex="1" parent="qUajyIX2pjDEGxBcLToG-16">
          <mxGeometry width="640" height="340" as="geometry" />
        </mxCell>
        <mxCell id="qUajyIX2pjDEGxBcLToG-15" value="帧头" style="rounded=0;whiteSpace=wrap;html=1;fillColor=#fff2cc;strokeColor=#d6b656;" vertex="1" parent="qUajyIX2pjDEGxBcLToG-1">
          <mxGeometry x="24" y="255" width="30" height="60" as="geometry" />
        </mxCell>
        <mxCell id="qUajyIX2pjDEGxBcLToG-13" value="IP头" style="rounded=0;whiteSpace=wrap;html=1;fillColor=#ffe6cc;strokeColor=#d79b00;" vertex="1" parent="qUajyIX2pjDEGxBcLToG-1">
          <mxGeometry x="54" y="255" width="120" height="60" as="geometry" />
        </mxCell>
        <mxCell id="qUajyIX2pjDEGxBcLToG-11" value="TCP头" style="rounded=0;whiteSpace=wrap;html=1;fillColor=#d5e8d4;strokeColor=#82b366;" vertex="1" parent="qUajyIX2pjDEGxBcLToG-1">
          <mxGeometry x="174" y="255" width="120" height="60" as="geometry" />
        </mxCell>
        <mxCell id="qUajyIX2pjDEGxBcLToG-8" value="应用数据" style="rounded=0;whiteSpace=wrap;html=1;fillColor=#dae8fc;strokeColor=#6c8ebf;" vertex="1" parent="qUajyIX2pjDEGxBcLToG-1">
          <mxGeometry x="294" y="255" width="120" height="60" as="geometry" />
        </mxCell>
        <mxCell id="qUajyIX2pjDEGxBcLToG-14" value="帧尾" style="rounded=0;whiteSpace=wrap;html=1;fillColor=#fff2cc;strokeColor=#d6b656;" vertex="1" parent="qUajyIX2pjDEGxBcLToG-1">
          <mxGeometry x="414" y="255" width="30" height="60" as="geometry" />
        </mxCell>
        <mxCell id="yICQoaKI8Lp6KE9foPb2-7" value="应用层" style="rounded=1;whiteSpace=wrap;html=1;strokeWidth=2;fillWeight=4;hachureGap=8;hachureAngle=45;fillColor=#dae8fc;sketch=1;glass=0;fontFamily=Comic Sans MS;strokeColor=#6c8ebf;" parent="qUajyIX2pjDEGxBcLToG-16" vertex="1">
          <mxGeometry x="490" y="10" width="120" height="60" as="geometry" />
        </mxCell>
        <mxCell id="qUajyIX2pjDEGxBcLToG-2" value="网络层" style="rounded=1;whiteSpace=wrap;html=1;strokeWidth=2;fillWeight=4;hachureGap=8;hachureAngle=45;fillColor=#ffe6cc;sketch=1;glass=0;fontFamily=Comic Sans MS;strokeColor=#d79b00;" vertex="1" parent="qUajyIX2pjDEGxBcLToG-16">
          <mxGeometry x="490" y="170" width="120" height="60" as="geometry" />
        </mxCell>
        <mxCell id="qUajyIX2pjDEGxBcLToG-3" value="传输层" style="rounded=1;whiteSpace=wrap;html=1;strokeWidth=2;fillWeight=4;hachureGap=8;hachureAngle=45;fillColor=#d5e8d4;sketch=1;glass=0;fontFamily=Comic Sans MS;strokeColor=#82b366;" vertex="1" parent="qUajyIX2pjDEGxBcLToG-16">
          <mxGeometry x="490" y="90" width="120" height="60" as="geometry" />
        </mxCell>
        <mxCell id="qUajyIX2pjDEGxBcLToG-4" value="网络接口层" style="rounded=1;whiteSpace=wrap;html=1;strokeWidth=2;fillWeight=4;hachureGap=8;hachureAngle=45;fillColor=#FFFFCC;sketch=1;gradientColor=none;glass=0;fontFamily=Comic Sans MS;" vertex="1" parent="qUajyIX2pjDEGxBcLToG-16">
          <mxGeometry x="490" y="254.5" width="120" height="60" as="geometry" />
        </mxCell>
        <mxCell id="qUajyIX2pjDEGxBcLToG-5" value="应用数据" style="rounded=0;whiteSpace=wrap;html=1;fillColor=#dae8fc;strokeColor=#6c8ebf;" vertex="1" parent="qUajyIX2pjDEGxBcLToG-16">
          <mxGeometry x="324" y="10" width="120" height="60" as="geometry" />
        </mxCell>
        <mxCell id="qUajyIX2pjDEGxBcLToG-6" value="应用数据" style="rounded=0;whiteSpace=wrap;html=1;fillColor=#dae8fc;strokeColor=#6c8ebf;" vertex="1" parent="qUajyIX2pjDEGxBcLToG-16">
          <mxGeometry x="324" y="90" width="120" height="60" as="geometry" />
        </mxCell>
        <mxCell id="qUajyIX2pjDEGxBcLToG-7" value="应用数据" style="rounded=0;whiteSpace=wrap;html=1;fillColor=#dae8fc;strokeColor=#6c8ebf;" vertex="1" parent="qUajyIX2pjDEGxBcLToG-16">
          <mxGeometry x="324" y="170" width="120" height="60" as="geometry" />
        </mxCell>
        <mxCell id="qUajyIX2pjDEGxBcLToG-9" value="TCP头" style="rounded=0;whiteSpace=wrap;html=1;fillColor=#d5e8d4;strokeColor=#82b366;" vertex="1" parent="qUajyIX2pjDEGxBcLToG-16">
          <mxGeometry x="204" y="90" width="120" height="60" as="geometry" />
        </mxCell>
        <mxCell id="qUajyIX2pjDEGxBcLToG-10" value="TCP头" style="rounded=0;whiteSpace=wrap;html=1;fillColor=#d5e8d4;strokeColor=#82b366;" vertex="1" parent="qUajyIX2pjDEGxBcLToG-16">
          <mxGeometry x="204" y="170" width="120" height="60" as="geometry" />
        </mxCell>
        <mxCell id="qUajyIX2pjDEGxBcLToG-12" value="IP头" style="rounded=0;whiteSpace=wrap;html=1;fillColor=#ffe6cc;strokeColor=#d79b00;" vertex="1" parent="qUajyIX2pjDEGxBcLToG-16">
          <mxGeometry x="84" y="170" width="120" height="60" as="geometry" />
        </mxCell>
      </root>
    </mxGraphModel>
  </diagram>
</mxfile>
